<?xml version="1.0" encoding="UTF-8" standalone="no"?>
<svg
   xmlns:dc="http://purl.org/dc/elements/1.1/"
   xmlns:cc="http://creativecommons.org/ns#"
   xmlns:rdf="http://www.w3.org/1999/02/22-rdf-syntax-ns#"
   xmlns:svg="http://www.w3.org/2000/svg"
   xmlns="http://www.w3.org/2000/svg"
   version="1.1"
   id="svg13218"
   viewBox="0 0 279.75792 138.41405"
   height="39.063522mm"
   width="78.953903mm">
  <defs
     id="defs13220" />
  <metadata
     id="metadata13223">
    <rdf:RDF>
      <cc:Work
         rdf:about="">
        <dc:format>image/svg+xml</dc:format>
        <dc:type
           rdf:resource="http://purl.org/dc/dcmitype/StillImage" />
        <dc:title></dc:title>
      </cc:Work>
    </rdf:RDF>
  </metadata>
  <g
     transform="translate(-368.69246,-543.15517)"
     id="layer1">
    <path
       id="path9109"
       d="m 371.69246,543.15517 a 3.0003,3.0003 0 0 0 -3,3 l 0,113.90625 a 3.0003,3.0003 0 0 0 3,3 l 18.91602,0 a 3.0003,3.0003 0 0 0 2.91992,-2.3086 c 2.08157,-8.78053 9.88307,-14.95726 18.90625,-14.9707 9.02525,0.0114 16.82828,6.18884 18.91016,14.9707 a 3.0003,3.0003 0 0 0 2.91992,2.3086 l 24.52734,0 a 3.0003,3.0003 0 0 0 2.91993,-2.3086 c 2.08142,-8.77991 9.88175,-14.95647 18.90428,-14.9707 9.02589,0.0106 16.83008,6.18822 18.91211,14.9707 a 3.0003,3.0003 0 0 0 2.91992,2.3086 l 21.30665,0 a 3.0003,3.0003 0 0 0 2.91992,-2.3086 c 2.08141,-8.77989 9.88196,-14.95636 18.90429,-14.9707 3.66705,0.0149 7.25557,1.06583 10.35157,3.03125 a 3.0003,3.0003 0 0 0 0.01,0.006 c 0.37031,0.23309 0.73218,0.47881 1.08594,0.73633 0.17598,0.12941 0.34996,0.26122 0.52148,0.39648 a 3.0003,3.0003 0 0 0 0.0117,0.01 c 0.32653,0.25489 0.64548,0.51971 0.95508,0.79492 0.17888,0.16182 0.35461,0.32774 0.52734,0.49609 a 3.0003,3.0003 0 0 0 0.0156,0.0156 c 0.27773,0.26665 0.54717,0.54156 0.80859,0.82422 0.18593,0.20377 0.36782,0.41154 0.54492,0.62304 a 3.0003,3.0003 0 0 0 0.0117,0.0137 c 0.23041,0.27192 0.45284,0.54983 0.66797,0.83399 0.17403,0.23352 0.34249,0.47179 0.50586,0.71289 a 3.0003,3.0003 0 0 0 0.0312,0.043 c 0.27284,0.38779 0.53161,0.78473 0.77539,1.1914 0.94757,1.63755 1.65221,3.40349 2.08985,5.24415 a 3.0003,3.0003 0 0 0 2.91796,2.30664 l 23.73633,0 a 3.0003,3.0003 0 0 0 2.91994,-2.3086 c 2.08141,-8.77991 9.88175,-14.95647 18.90429,-14.9707 9.02589,0.0106 16.83008,6.18822 18.91211,14.9707 a 3.0003,3.0003 0 0 0 2.91991,2.3086 l 10.64649,0 a 3.0003,3.0003 0 0 0 3,-3 l 0,-38.91016 a 3.0003,3.0003 0 0 0 -2.44141,-2.94727 l -32.41797,-6.14453 -13.46093,-34.89844 a 3.0003,3.0003 0 0 0 -2.79883,-1.91992 l -29.32032,0 0,-29.08593 a 3.0003,3.0003 0 0 0 -3,-3 l -193.31835,0 z m 20.40625,17.08203 60.2793,0 c 4.78731,0 8.73242,3.94511 8.73242,8.73242 l 0,60.27734 c 0,4.78731 -3.94511,8.73438 -8.73242,8.73438 l -60.2793,0 c -4.78729,0 -8.73242,-3.94707 -8.73242,-8.73438 l 0,-60.27734 c 0,-4.78731 3.94513,-8.73242 8.73242,-8.73242 z m 92.22656,0 60.27929,0 c 4.78731,0 8.73244,3.94511 8.73244,8.73242 l 0,60.27734 c 0,4.78731 -3.94512,8.73438 -8.73243,8.73438 l -60.27929,0 c -4.78731,0 -8.73242,-3.94707 -8.73242,-8.73438 l 0,-60.27734 c 0,-4.78731 3.94511,-8.73242 8.73242,-8.73242 z m -92.22656,5.875 c -1.63317,0 -2.85547,1.22424 -2.85547,2.85742 l 0,60.27734 c 0,1.63318 1.2223,2.85742 2.85547,2.85742 l 60.2793,0 c 1.63318,0 2.85547,-1.22424 2.85547,-2.85742 l 0,-60.27734 c 0,-1.63318 -1.22229,-2.85742 -2.85547,-2.85742 l -60.2793,0 z m 92.22656,0 c -1.63318,0 -2.85547,1.22424 -2.85547,2.85742 l 0,60.27734 c 0,1.63318 1.22229,2.85742 2.85547,2.85742 l 60.27929,0 c 1.63318,0 2.85547,-1.22424 2.85547,-2.85742 l 0,-60.27734 c 0,-1.63318 -1.22229,-2.85742 -2.85547,-2.85742 l -60.27929,0 z m -78.34765,10.23242 a 6.5041542,6.5041542 0 0 1 6.50391,6.5039 6.5041542,6.5041542 0 0 1 -6.50391,6.50391 6.5041542,6.5041542 0 0 1 -6.50391,-6.50391 6.5041542,6.5041542 0 0 1 6.50391,-6.5039 z m 32.52149,0 a 6.5041542,6.5041542 0 0 1 6.5039,6.5039 6.5041542,6.5041542 0 0 1 -6.5039,6.50391 6.5041542,6.5041542 0 0 1 -6.50391,-6.50391 6.5041542,6.5041542 0 0 1 6.50391,-6.5039 z m 59.70506,0 a 6.5041542,6.5041542 0 0 1 6.50391,6.5039 6.5041542,6.5041542 0 0 1 -6.50391,6.50391 6.5041542,6.5041542 0 0 1 -6.50389,-6.50391 6.5041542,6.5041542 0 0 1 6.50389,-6.5039 z m 32.52149,0 a 6.5041542,6.5041542 0 0 1 6.5039,6.5039 6.5041542,6.5041542 0 0 1 -6.5039,6.50391 6.5041542,6.5041542 0 0 1 -6.5039,-6.50391 6.5041542,6.5041542 0 0 1 6.5039,-6.5039 z m -108.48632,16.25976 a 6.5041542,6.5041542 0 0 1 6.50391,6.50391 6.5041542,6.5041542 0 0 1 -6.50391,6.50391 6.5041542,6.5041542 0 0 1 -6.50391,-6.50391 6.5041542,6.5041542 0 0 1 6.50391,-6.50391 z m 92.2246,0 a 6.5041542,6.5041542 0 0 1 6.50586,6.50391 6.5041542,6.5041542 0 0 1 -6.50586,6.50391 6.5041542,6.5041542 0 0 1 -6.50391,-6.50391 6.5041542,6.5041542 0 0 1 6.50391,-6.50391 z m -108.48632,16.25977 a 6.5041542,6.5041542 0 0 1 6.50391,6.50391 6.5041542,6.5041542 0 0 1 -6.50391,6.5039 6.5041542,6.5041542 0 0 1 -6.50391,-6.5039 6.5041542,6.5041542 0 0 1 6.50391,-6.50391 z m 32.52149,0 a 6.5041542,6.5041542 0 0 1 6.5039,6.50391 6.5041542,6.5041542 0 0 1 -6.5039,6.5039 6.5041542,6.5041542 0 0 1 -6.50391,-6.5039 6.5041542,6.5041542 0 0 1 6.50391,-6.50391 z m 59.70506,0 a 6.5041542,6.5041542 0 0 1 6.50391,6.50391 6.5041542,6.5041542 0 0 1 -6.50391,6.5039 6.5041542,6.5041542 0 0 1 -6.50389,-6.5039 6.5041542,6.5041542 0 0 1 6.50389,-6.50391 z m 32.52149,0 a 6.5041542,6.5041542 0 0 1 6.5039,6.50391 6.5041542,6.5041542 0 0 1 -6.5039,6.5039 6.5041542,6.5041542 0 0 1 -6.5039,-6.5039 6.5041542,6.5041542 0 0 1 6.5039,-6.50391 z m -118.2871,40.05273 c -8.98308,0 -16.32617,7.3431 -16.32617,16.32618 0,8.98307 7.34309,16.32617 16.32617,16.32617 8.98308,1e-5 16.32616,-7.34309 16.32617,-16.32617 0,-8.98309 -7.34309,-16.32619 -16.32617,-16.32618 z m 68.18164,0 c -8.98308,0 -16.32617,7.3431 -16.32617,16.32618 0,8.98307 7.34309,16.32617 16.32617,16.32617 8.98308,1e-5 16.32615,-7.34309 16.32616,-16.32617 0,-8.98309 -7.34308,-16.32619 -16.32616,-16.32618 z m 64.96484,0 c -8.98308,0 -16.32618,7.3431 -16.32617,16.32618 0,8.98307 7.3431,16.32617 16.32617,16.32617 8.98307,0 16.32617,-7.3431 16.32617,-16.32617 0,-8.98308 -7.3431,-16.32618 -16.32617,-16.32618 z m 67.39062,0 c -8.98309,-10e-6 -16.32616,7.34309 -16.32616,16.32618 0,8.98308 7.34309,16.32618 16.32616,16.32617 8.98307,0 16.32617,-7.3431 16.32617,-16.32617 10e-6,-8.98308 -7.34309,-16.32618 -16.32617,-16.32618 z m -200.5371,5.69922 c 5.90257,0 10.62695,4.72438 10.62695,10.62696 -1e-5,5.90256 -4.72438,10.62696 -10.62695,10.62695 -5.90257,0 -10.62695,-4.72439 -10.62695,-10.62695 0,-5.90257 4.72438,-10.62696 10.62695,-10.62696 z m 68.18163,0 c 5.90257,0 10.62695,4.72438 10.62695,10.62696 -10e-6,5.90256 -4.72438,10.62696 -10.62695,10.62695 -5.90257,0 -10.62695,-4.72439 -10.62695,-10.62695 0,-5.90257 4.72438,-10.62696 10.62695,-10.62696 z m 64.96484,0 c 5.90257,0 10.62696,4.72439 10.62696,10.62696 0,5.90256 -4.72439,10.62695 -10.62696,10.62695 -5.90256,0 -10.62695,-4.72439 -10.62695,-10.62695 -10e-6,-5.90257 4.72438,-10.62696 10.62695,-10.62696 z m 67.39063,0 c 5.90257,0 10.62696,4.72439 10.62695,10.62696 0,5.90256 -4.72439,10.62695 -10.62695,10.62695 -5.90257,10e-6 -10.62694,-4.72439 -10.62696,-10.62695 0,-5.90258 4.72439,-10.62696 10.62696,-10.62696 z m -132.35547,3.29297 a 7.3333879,7.3333879 0 0 0 -7.33203,7.33399 7.3333879,7.3333879 0 0 0 7.33203,7.33203 7.3333879,7.3333879 0 0 0 7.33398,-7.33203 7.3333879,7.3333879 0 0 0 -7.33398,-7.33399 z m -68.18163,0.36719 a 6.9667187,6.9667187 0 0 0 -6.9668,6.9668 6.9667187,6.9667187 0 0 0 6.9668,6.96679 6.9667187,6.9667187 0 0 0 6.9668,-6.96679 6.9667187,6.9667187 0 0 0 -6.9668,-6.9668 z m 133.14647,0 a 6.9667187,6.9667187 0 0 0 -6.96679,6.9668 6.9667187,6.9667187 0 0 0 6.96679,6.96679 6.9667187,6.9667187 0 0 0 6.9668,-6.96679 6.9667187,6.9667187 0 0 0 -6.9668,-6.9668 z m 67.39063,0 a 6.9667187,6.9667187 0 0 0 -6.9668,6.9668 6.9667187,6.9667187 0 0 0 6.9668,6.96679 6.9667187,6.9667187 0 0 0 6.9668,-6.96679 6.9667187,6.9667187 0 0 0 -6.9668,-6.9668 z"
       style="color:#000000;clip-rule:nonzero;display:inline;overflow:visible;visibility:visible;opacity:1;isolation:auto;mix-blend-mode:normal;color-interpolation:sRGB;color-interpolation-filters:linearRGB;solid-color:#000000;solid-opacity:1;fill:#e30000;fill-opacity:1;fill-rule:nonzero;stroke:none;stroke-width:6;stroke-linecap:round;stroke-linejoin:round;stroke-miterlimit:4;stroke-dasharray:none;stroke-dashoffset:0;stroke-opacity:1;marker:none;filter:url(#filter18494);color-rendering:auto;image-rendering:auto;shape-rendering:auto;text-rendering:auto;enable-background:accumulate" />
  </g>
</svg>
